<?xml version="1.0" encoding="UTF-8" standalone="no"?>
<!DOCTYPE svg PUBLIC "-//W3C//DTD SVG 1.1//EN" "http://www.w3.org/Graphics/SVG/1.1/DTD/svg11.dtd">
<svg width="100%" height="100%" viewBox="0 0 256 256" version="1.1" xmlns="http://www.w3.org/2000/svg" xmlns:xlink="http://www.w3.org/1999/xlink" xml:space="preserve" xmlns:serif="http://www.serif.com/" style="fill-rule:evenodd;clip-rule:evenodd;stroke-linejoin:round;stroke-miterlimit:2;">
    <rect id="Artboard1" x="0" y="0" width="256" height="256" style="fill:none;"/>
    <g id="Artboard11" serif:id="Artboard1">
        <g transform="matrix(1,0,0,1,4.26326e-14,-5)">
            <g transform="matrix(-0.305253,0.0817924,0.0681147,0.254207,351.123,-214.855)">
                <path d="M1241.19,913.15C1242.28,586.815 794.672,581.31 779.92,890.248C666.965,858.124 595.666,1012.07 653.414,1090.08C718.643,1121.24 772.668,1122.17 803.033,1118.83C808.088,997.45 843.224,915.102 869.186,871.922C885.768,844.344 901.167,830.293 907.165,826.608C911.935,823.677 917.168,821.993 922.52,821.667C929.248,821.257 948.436,824.18 974.279,838.108C1014.74,859.915 1079.46,910.135 1134.38,1012.22C1159.79,998.142 1200.96,968.982 1241.19,913.15Z" style="fill:rgb(53,73,198);"/>
            </g>
            <g transform="matrix(-0.305253,0.0817924,0.0681147,0.254207,351.123,-214.855)">
                <path d="M1324.73,1256.12C1356.94,1174.03 1390.82,1059.4 1288.58,915.051C1209.61,1041.81 1118.08,1068.08 1118.08,1068.08C1043.24,906.758 939.461,866.245 924.442,867.16C911.055,875.384 838.051,972.778 840.408,1157.43C840.408,1157.43 750.197,1189.62 629.033,1127.26C600.596,1313.65 677.664,1392.59 739.74,1444.34C782.928,1316.49 873.743,1213.58 993.169,1175.15C1112.59,1136.73 1234.09,1171.33 1324.73,1256.12Z" style="fill:rgb(224,227,246);"/>
            </g>
            <g transform="matrix(-0.305253,0.0817924,0.0681147,0.254207,351.123,-214.855)">
                <path d="M744.185,1241.75C720.599,1210.14 672.927,1198.11 667.633,1203.81C662.339,1209.51 666.829,1267.29 690.715,1299.29C703.323,1316.18 725.539,1317.01 740.295,1301.13C755.051,1285.25 756.794,1258.64 744.185,1241.75ZM1014.02,1047.23C1001.27,990.09 950.111,938.481 940.985,941.417C931.859,944.353 908.931,1019.02 921.843,1076.89C928.659,1107.44 954.845,1125.59 980.283,1117.4C1005.72,1109.22 1020.84,1077.78 1014.02,1047.23ZM1236.52,1083.33C1232.64,1105.53 1245.23,1127.53 1264.62,1132.42C1284.01,1137.32 1302.91,1123.27 1306.79,1101.07C1314.15,1059.01 1293.98,1006.27 1287.02,1004.52C1280.07,1002.76 1243.79,1041.81 1236.52,1083.33Z" style="fill:rgb(53,73,198);"/>
            </g>
        </g>
    </g>
</svg>
