<?xml version="1.0" encoding="UTF-8" standalone="no"?>
<!DOCTYPE svg PUBLIC "-//W3C//DTD SVG 1.1//EN" "http://www.w3.org/Graphics/SVG/1.1/DTD/svg11.dtd">
<svg width="100%" height="100%" viewBox="0 0 845 240" version="1.1" xmlns="http://www.w3.org/2000/svg" xmlns:xlink="http://www.w3.org/1999/xlink" xml:space="preserve" xmlns:serif="http://www.serif.com/" style="fill-rule:evenodd;clip-rule:evenodd;stroke-linejoin:round;stroke-miterlimit:2;">
    <g>
        <g transform="matrix(1,0,0,1,-610.962,-784.095)">
            <g transform="matrix(-0.407414,0.109166,0.0909108,0.339284,1065.8,453.039)">
                <path d="M1241.19,913.15C1242.28,586.815 794.672,581.31 779.92,890.248C666.965,858.124 595.666,1012.07 653.414,1090.08C718.643,1121.24 772.668,1122.17 803.033,1118.83C808.088,997.45 843.224,915.102 869.186,871.922C885.768,844.344 901.167,830.293 907.165,826.608C911.935,823.677 917.168,821.993 922.52,821.667C929.248,821.257 948.436,824.18 974.279,838.108C1014.74,859.915 1079.46,910.135 1134.38,1012.22C1159.79,998.142 1200.96,968.982 1241.19,913.15Z" style="fill:rgb(53,73,198);"/>
            </g>
            <g transform="matrix(-0.407414,0.109166,0.0909108,0.339284,1065.8,453.039)">
                <path d="M1324.73,1256.12C1356.94,1174.03 1390.82,1059.4 1288.58,915.051C1209.61,1041.81 1118.08,1068.08 1118.08,1068.08C1043.24,906.758 939.461,866.245 924.442,867.16C911.055,875.384 838.051,972.778 840.408,1157.43C840.408,1157.43 750.197,1189.62 629.033,1127.26C600.596,1313.65 677.664,1392.59 739.74,1444.34C782.928,1316.49 873.743,1213.58 993.169,1175.15C1112.59,1136.73 1234.09,1171.33 1324.73,1256.12Z" style="fill:rgb(224,227,246);"/>
            </g>
            <g transform="matrix(-0.407414,0.109166,0.0909108,0.339284,1065.8,453.039)">
                <path d="M744.185,1241.75C720.599,1210.14 672.927,1198.11 667.633,1203.81C662.339,1209.51 666.829,1267.29 690.715,1299.29C703.323,1316.18 725.539,1317.01 740.295,1301.13C755.051,1285.25 756.794,1258.64 744.185,1241.75ZM1014.02,1047.23C1001.27,990.09 950.111,938.481 940.985,941.417C931.859,944.353 908.931,1019.02 921.843,1076.89C928.659,1107.44 954.845,1125.59 980.283,1117.4C1005.72,1109.22 1020.84,1077.78 1014.02,1047.23ZM1236.52,1083.33C1232.64,1105.53 1245.23,1127.53 1264.62,1132.42C1284.01,1137.32 1302.91,1123.27 1306.79,1101.07C1314.15,1059.01 1293.98,1006.27 1287.02,1004.52C1280.07,1002.76 1243.79,1041.81 1236.52,1083.33Z" style="fill:rgb(53,73,198);"/>
            </g>
        </g>
        <g transform="matrix(1.43983,0,0,1.43983,-265.144,-693.503)">
            <g transform="matrix(0.451018,0,0,0.451018,308.695,298.764)">
                <path d="M300,576L300,432C300,429.791 301.791,428 304,428L320,428C321.218,428 322.369,428.555 323.128,429.507L376,495.867L428.872,429.507C429.631,428.555 430.782,428 432,428L448,428C450.209,428 452,429.791 452,432L452,576C452,578.209 450.209,580 448,580L432,580C429.791,580 428,578.209 428,576L428,469.154L379.128,530.493C378.369,531.445 377.218,532 376,532C374.782,532 373.631,531.445 372.872,530.493L324,469.154L324,576C324,578.209 322.209,580 320,580L304,580C301.791,580 300,578.209 300,576Z" style="fill:rgb(53,73,198);"/>
            </g>
            <g transform="matrix(0.451018,0,0,0.451018,308.695,298.764)">
                <path d="M576.884,554.858C562.765,574.666 537.334,584.668 512.471,578.006C488.596,571.608 471.95,551.642 468.608,528.625C468.254,526.192 468.05,523.725 468.001,521.236C468,521.21 468,521.184 468,521.157L468,518.973C468,518.947 468,518.92 468.001,518.894C468.049,516.434 468.25,513.957 468.611,511.475C468.948,509.158 469.424,506.837 470.044,504.521C478.615,472.535 511.543,453.524 543.529,462.095C567.404,468.492 584.05,488.458 587.392,511.475C587.746,513.908 587.95,516.376 587.999,518.864C588,518.89 588,518.917 588,518.943L588,521.127C588,521.154 588,521.18 587.999,521.206C587.951,523.666 587.75,526.143 587.389,528.626C587.103,530.592 585.417,532.05 583.43,532.05C583.43,532.05 494.062,532.05 494.062,532.05C497.893,542.844 506.793,551.638 518.683,554.824C533.299,558.74 548.242,553.057 556.81,541.648C558.055,539.989 560.363,539.558 562.124,540.655L575.742,549.141C576.679,549.725 577.333,550.67 577.549,551.752C577.766,552.835 577.525,553.959 576.884,554.858ZM494.057,508.05C510.815,508.05 561.938,508.05 561.938,508.05C558.107,497.257 549.207,488.463 537.317,485.277C519.038,480.379 500.246,490.494 494.057,508.05Z" style="fill:rgb(53,73,198);"/>
            </g>
            <g transform="matrix(0.451018,0,0,0.451018,204.885,376.415)">
                <path d="M721.998,511.015C721.988,511.319 721.983,511.624 721.983,511.931L721.983,576C721.983,578.209 720.192,580 717.983,580L702,580C699.791,580 698,578.209 698,576L698,463.979C698,461.769 699.791,459.979 702,459.979L717.983,459.979C720.191,459.979 721.981,461.767 721.983,463.975C721.983,463.975 721.99,471.224 721.99,471.224C729.723,463.797 740.123,459.939 749.992,459.939C763.31,459.939 775.466,464.958 784.67,473.205C795.295,482.727 801.983,496.554 801.983,511.931L801.983,576C801.983,578.209 800.192,580 797.983,580L782,580C779.791,580 778,578.209 778,576L778,511.931C778,496.472 765.45,483.922 749.992,483.922C734.84,483.922 722.481,495.98 721.998,511.015Z" style="fill:rgb(53,73,198);"/>
            </g>
            <g transform="matrix(0.451018,0,0,0.451018,266.299,298.764)">
                <path d="M721.983,471.23C729.717,463.799 740.12,459.939 749.992,459.939C763.31,459.939 775.466,464.958 784.67,473.205C786.251,474.623 786.449,477.029 785.121,478.686L775.104,491.183C774.405,492.056 773.373,492.596 772.258,492.672C771.142,492.749 770.046,492.356 769.234,491.587C764.215,486.837 757.441,483.922 749.992,483.922C734.84,483.922 722.481,495.98 721.998,511.015C721.988,511.319 721.983,511.624 721.983,511.931L721.983,576C721.983,578.209 720.192,580 717.983,580L702,580C699.791,580 698,578.209 698,576L698,463.979C698,461.769 699.791,459.979 702,459.979L717.983,459.979C720.192,459.979 721.983,461.769 721.983,463.979L721.983,471.23Z" style="fill:rgb(53,73,198);"/>
            </g>
            <g transform="matrix(-0.451018,0,0,-0.451018,935.534,845.447)">
                <path d="M721.998,511.015C721.988,511.319 721.983,511.624 721.983,511.931L721.983,576C721.983,578.209 720.192,580 717.983,580L702,580C699.791,580 698,578.209 698,576L698,463.979C698,461.769 699.791,459.979 702,459.979L717.983,459.979C720.191,459.979 721.981,461.767 721.983,463.975C721.983,463.975 721.99,471.224 721.99,471.224C729.723,463.797 740.123,459.939 749.992,459.939C763.31,459.939 775.466,464.958 784.67,473.205C795.295,482.727 801.983,496.554 801.983,511.931L801.983,576C801.983,578.209 800.192,580 797.983,580L782,580C779.791,580 778,578.209 778,576L778,511.931C778,496.472 765.45,483.922 749.992,483.922C734.84,483.922 722.481,495.98 721.998,511.015Z" style="fill:rgb(53,73,198);"/>
            </g>
            <g transform="matrix(0.451018,0,0,0.451018,313.656,298.764)">
                <path d="M906.61,638.51L935.759,576L884.293,465.63C883.715,464.391 883.81,462.943 884.545,461.79C885.279,460.637 886.551,459.939 887.918,459.939L905.572,459.939C907.127,459.939 908.54,460.84 909.197,462.249L949,547.606L988.803,462.249C989.46,460.84 990.873,459.939 992.428,459.939L1010.08,459.939C1011.45,459.939 1012.72,460.637 1013.46,461.79C1014.19,462.943 1014.28,464.391 1013.71,465.63L931.515,641.891C930.858,643.3 929.444,644.201 927.89,644.201L910.236,644.201C908.869,644.201 907.597,643.503 906.862,642.35C906.128,641.197 906.033,639.749 906.61,638.51Z" style="fill:rgb(53,73,198);"/>
            </g>
            <g transform="matrix(0.451018,0,0,0.451018,166.046,376.429)">
                <path d="M1024.89,573.649C1024.89,573.649 1063.87,520 1063.87,520L1024.85,466.29C1023.96,465.073 1023.84,463.463 1024.52,462.123C1025.2,460.783 1026.58,459.939 1028.08,459.939L1047.86,459.939C1049.14,459.939 1050.34,460.552 1051.1,461.588L1078.7,499.584L1106.31,461.588C1107.06,460.552 1108.26,459.939 1109.54,459.939L1129.32,459.939C1130.82,459.939 1132.2,460.783 1132.88,462.123C1133.57,463.463 1133.44,465.073 1132.56,466.29C1132.56,466.29 1093.53,520 1093.53,520L1132.51,573.649C1133.4,574.866 1133.52,576.476 1132.84,577.816C1132.16,579.156 1130.78,580 1129.28,580L1109.5,580C1108.22,580 1107.02,579.387 1106.26,578.351L1078.7,540.416L1051.14,578.351C1050.39,579.387 1049.18,580 1047.9,580L1028.13,580C1026.62,580 1025.25,579.156 1024.56,577.816C1023.88,576.476 1024.01,574.866 1024.89,573.649Z" style="fill:rgb(53,73,198);"/>
            </g>
            <g transform="matrix(0.451018,0,0,0.507154,243.748,376.494)">
                <path d="M468,384L468,512.061C468,514.026 466.209,515.618 464,515.618L448,515.618C445.791,515.618 444,514.026 444,512.061L444,384C444,382.035 445.791,380.443 448,380.443L464,380.443C466.209,380.443 468,382.035 468,384Z" style="fill:rgb(53,73,198);"/>
            </g>
            <g transform="matrix(0.451018,0,0,0.395374,297.795,433.732)">
                <path d="M468,384L468,512.061C468,514.581 466.209,516.624 464,516.624L448,516.624C445.791,516.624 444,514.581 444,512.061L444,384C444,381.48 445.791,379.437 448,379.437L464,379.437C466.209,379.437 468,381.48 468,384Z" style="fill:rgb(53,73,198);"/>
            </g>
            <g transform="matrix(2.76169e-17,0.451018,-0.338102,2.07028e-17,618.933,426.916)">
                <path d="M468,384L468,512.061C468,515.008 466.209,517.397 464,517.397L448,517.397C445.791,517.397 444,515.008 444,512.061L444,384C444,381.053 445.791,378.664 448,378.664L464,378.664C466.209,378.664 468,381.053 468,384Z" style="fill:rgb(53,73,198);"/>
            </g>
            <g transform="matrix(0.563772,0,0,0.563772,174.216,360.963)">
                <circle cx="584" cy="376" r="11.2" style="fill:rgb(53,73,198);"/>
            </g>
            <g transform="matrix(0.451018,0,0,0.451018,245.552,470.223)">
                <path d="M871.983,91.026C878.827,84.449 887.761,80.668 896.569,79.89C896.602,79.887 896.635,79.885 896.668,79.883C897.767,79.813 898.875,79.778 899.992,79.778C901.108,79.778 902.216,79.813 903.315,79.883C915.318,80.642 926.22,85.48 934.65,93.026L934.67,93.044C937.955,95.988 940.864,99.344 943.314,103.03C943.725,102.299 944.152,101.58 944.592,100.876C952.65,87.998 965.55,79.778 979.992,79.778C993.301,79.778 1005.45,84.789 1014.65,93.026L1014.67,93.044C1025.3,102.566 1031.98,116.393 1031.98,131.768L1032,195.798C1032,196.859 1031.58,197.877 1030.83,198.627C1030.08,199.378 1029.06,199.799 1028,199.799L1012,199.799C1009.79,199.799 1008,198.008 1008,195.799L1008,131.769C1008,116.311 995.45,103.761 979.992,103.761C964.545,103.761 952.002,116.292 951.983,131.734L951.983,195.799C951.983,198.008 950.192,199.799 947.983,199.799L932,199.799C929.791,199.799 928,198.009 928,195.8C928,195.8 927.996,131.16 927.985,130.815C927.74,123.171 924.424,116.298 919.234,111.386C914.215,106.636 907.441,103.722 899.992,103.722C892.542,103.722 885.769,106.636 880.749,111.386C875.559,116.298 872.243,123.171 871.998,130.815C871.987,131.16 871.983,195.8 871.983,195.8C871.983,198.009 870.192,199.799 867.983,199.799L852,199.799C849.791,199.799 848,198.008 848,195.799L848,83.778C848,81.569 849.791,79.778 852,79.778L867.983,79.778C870.192,79.778 871.983,81.569 871.983,83.778L871.983,91.026Z" style="fill:rgb(53,73,198);"/>
            </g>
        </g>
    </g>
</svg>
